<?xml version="1.0" encoding="UTF-8"?> <svg xmlns="http://www.w3.org/2000/svg" xmlns:xlink="http://www.w3.org/1999/xlink" width="523" height="453" viewBox="0 0 523 453"> <defs> <path id="a" d="M105.091 105.292H.012V.202h105.08v105.09z"></path> <path id="c" d="M0 453h522.78V.845H0z"></path> </defs> <g fill="none" fill-rule="evenodd"> <path stroke="#F16522" stroke-width="4" d="M259 94v34M259 315v34M418 237h-92M385 138l-70 60M195 199l-60-70M135 349l70-60M325 289l60 70M199 237h-92"></path> <g> <path fill="#404042" d="M192.394 157.647c0-16.175 30.19-29.3 67.42-29.3 37.23 0 67.392 13.125 67.392 29.3 0 16.15-30.162 29.27-67.392 29.27s-67.42-13.12-67.42-29.27zm67.42-23.847c-20.473 0-37.056 7.18-37.056 16.088 0 8.88 16.583 16.09 37.056 16.09 20.445 0 37.055-7.21 37.055-16.09 0-8.909-16.61-16.088-37.055-16.088zM332.713 261.775v27.02c0 19.352-32.644 35.04-72.9 35.04-40.281 0-72.926-15.688-72.926-35.04v-27.02c12.31 13.467 40.314 22.9 72.927 22.9 32.586 0 60.585-9.433 72.9-22.9"></path> <path fill="#404042" d="M332.74 171.316v27.021c0 19.347-32.67 35.062-72.926 35.062-40.283 0-72.926-15.715-72.926-35.062v-27.02c12.309 13.494 40.314 22.927 72.926 22.927 32.585 0 60.585-9.433 72.926-22.928"></path> <path fill="#404042" d="M332.74 217.022v26.99c0 19.38-32.67 35.066-72.926 35.066-40.283 0-72.926-15.685-72.926-35.066v-26.99c12.309 13.467 40.314 22.895 72.926 22.895 32.585 0 60.585-9.428 72.926-22.895"></path> <path fill="#BD202E" d="M313.057 53.378c0 29.014-23.52 52.539-52.54 52.539-29.017 0-52.54-23.525-52.54-52.539 0-29.02 23.523-52.533 52.54-52.533 29.02 0 52.54 23.513 52.54 52.533"></path> <g transform="translate(209.355 347.708)"> <mask id="b" fill="#fff"> <use xlink:href="#a"></use> </mask> <path fill="#C1C0C0" d="M105.091 52.734c0 29.034-23.52 52.558-52.54 52.558-29.016 0-52.539-23.524-52.539-52.558C.012 23.714 23.535.201 52.552.201c29.02 0 52.54 23.513 52.54 52.533" mask="url(#b)"></path> </g> <path fill="#4288C8" d="M434.216 126.89c0 20.174-16.362 36.524-36.537 36.524-20.172 0-36.522-16.35-36.522-36.524 0-20.172 16.35-36.525 36.522-36.525 20.175 0 36.537 16.353 36.537 36.525"></path> <path fill="#F79523" d="M164.93 126.196c0 20.173-16.351 36.524-36.525 36.524-20.173 0-36.523-16.35-36.523-36.524 0-20.172 16.35-36.525 36.523-36.525 20.174 0 36.526 16.353 36.526 36.525"></path> <path fill="#FEFEFE" d="M122.96 108.154V98.98c0-.162-.047-.233-.11-.216 0 0-.685.176-.695.176-.111.012-.174-.05-.174-.305v-.612c0-.208.076-.276.184-.3l1.82-.474a.323.323 0 0 1 .102-.017c.102 0 .157.071.157.337v10.585c0 .345-.077.535-.192.535h-.909c-.11 0-.183-.19-.183-.535M130.197 102.895c0-3.463-.388-4.77-1.41-4.77-1.022 0-1.407 1.317-1.407 4.77 0 3.561.417 4.886 1.415 4.886.996 0 1.402-1.3 1.402-4.886m-4.034 0c0-4.8 1.203-5.799 2.624-5.799 1.43 0 2.639.974 2.639 5.799 0 4.7-1.21 5.907-2.639 5.907-1.421 0-2.624-1.207-2.624-5.907M133.805 108.154V98.98c0-.162-.05-.233-.112-.216 0 0-.686.176-.694.176-.114.012-.176-.05-.176-.305v-.612c0-.208.08-.276.184-.3l1.819-.474a.345.345 0 0 1 .102-.017c.106 0 .165.071.165.337v10.585c0 .345-.083.535-.192.535h-.912c-.112 0-.184-.19-.184-.535M109.95 117.98c0-3.462-.392-4.772-1.411-4.772-1.021 0-1.403 1.318-1.403 4.772 0 3.56.411 4.885 1.411 4.885.998 0 1.403-1.299 1.403-4.885m-4.037 0c0-4.802 1.204-5.797 2.626-5.797 1.428 0 2.642.97 2.642 5.797 0 4.703-1.214 5.906-2.642 5.906-1.422 0-2.626-1.203-2.626-5.906M113.557 123.24v-9.174c0-.16-.045-.235-.109-.218 0 0-.688.176-.696.176-.11.015-.173-.049-.173-.305v-.612c0-.208.076-.27.181-.3l1.818-.474c.04-.008.073-.016.108-.016.1 0 .153.073.153.337v10.586c0 .344-.077.535-.188.535h-.909c-.112 0-.185-.191-.185-.535M117.539 123.24v-9.174c0-.16-.047-.235-.113-.218l-.69.176c-.11.015-.177-.049-.177-.305v-.612c0-.208.081-.27.181-.3l1.82-.474c.04-.008.07-.016.106-.016.104 0 .157.073.157.337v10.586c0 .344-.08.535-.192.535h-.909c-.111 0-.183-.191-.183-.535M124.776 117.98c0-3.462-.388-4.772-1.41-4.772-1.02 0-1.404 1.318-1.404 4.772 0 3.56.414 4.885 1.41 4.885 1 0 1.404-1.299 1.404-4.885m-4.036 0c0-4.802 1.208-5.797 2.626-5.797 1.427 0 2.639.97 2.639 5.797 0 4.703-1.212 5.906-2.639 5.906-1.418 0-2.626-1.203-2.626-5.906M128.384 123.24v-9.174c0-.16-.046-.235-.109-.218 0 0-.69.176-.698.176-.111.015-.176-.049-.176-.305v-.612c0-.208.083-.27.185-.3l1.82-.474c.04-.008.074-.016.103-.016.104 0 .162.073.162.337v10.586c0 .344-.083.535-.191.535h-.914c-.107 0-.182-.191-.182-.535M135.621 117.98c0-3.462-.39-4.772-1.412-4.772-1.02 0-1.403 1.318-1.403 4.772 0 3.56.414 4.885 1.41 4.885 1 0 1.405-1.299 1.405-4.885m-4.035 0c0-4.802 1.202-5.797 2.623-5.797 1.43 0 2.644.97 2.644 5.797 0 4.703-1.215 5.906-2.644 5.906-1.421 0-2.623-1.203-2.623-5.906M139.227 123.24v-9.174c0-.16-.045-.235-.11-.218l-.694.176c-.113.015-.177-.049-.177-.305v-.612c0-.208.081-.27.181-.3l1.821-.474c.043-.008.071-.016.107-.016.102 0 .155.073.155.337v10.586c0 .344-.077.535-.191.535h-.91c-.111 0-.182-.191-.182-.535M146.466 117.98c0-3.462-.389-4.772-1.409-4.772-1.025 0-1.408 1.318-1.408 4.772 0 3.56.416 4.885 1.41 4.885 1.002 0 1.407-1.299 1.407-4.885m-4.035 0c0-4.802 1.202-5.797 2.626-5.797 1.426 0 2.637.97 2.637 5.797 0 4.703-1.21 5.906-2.637 5.906-1.424 0-2.626-1.203-2.626-5.906M150.071 123.24v-9.174c0-.16-.046-.235-.109-.218 0 0-.685.176-.695.176-.112.015-.178-.049-.178-.305v-.612c0-.208.082-.27.188-.3l1.819-.474a.508.508 0 0 1 .1-.016c.104 0 .164.073.164.337v10.586c0 .344-.083.535-.19.535h-.912c-.112 0-.187-.191-.187-.535M107.958 133.066c0-3.462-.388-4.772-1.409-4.772-1.022 0-1.407 1.315-1.407 4.772 0 3.558.417 4.883 1.415 4.883.996 0 1.401-1.3 1.401-4.883m-4.035 0c0-4.804 1.204-5.8 2.626-5.8 1.429 0 2.642.972 2.642 5.8 0 4.703-1.213 5.904-2.642 5.904-1.422 0-2.626-1.2-2.626-5.904M114.821 133.066c0-3.462-.39-4.772-1.411-4.772-1.02 0-1.405 1.315-1.405 4.772 0 3.558.414 4.883 1.413 4.883.997 0 1.403-1.3 1.403-4.883m-4.038 0c0-4.804 1.205-5.8 2.627-5.8 1.43 0 2.642.972 2.642 5.8 0 4.703-1.213 5.904-2.642 5.904-1.422 0-2.627-1.2-2.627-5.904M118.428 138.324v-9.176c0-.159-.046-.233-.11-.216 0 0-.688.176-.697.176-.11.015-.173-.05-.173-.305v-.612c0-.208.08-.27.182-.299l1.818-.476c.044-.006.071-.015.107-.015.101 0 .156.071.156.337v10.586c0 .345-.08.536-.192.536h-.908c-.112 0-.183-.191-.183-.536M122.412 138.324v-9.176c0-.159-.05-.233-.114-.216 0 0-.685.176-.693.176-.11.015-.172-.05-.172-.305v-.612c0-.208.078-.27.18-.299l1.819-.476c.041-.006.072-.015.105-.015.103 0 .16.071.16.337v10.586c0 .345-.081.536-.193.536h-.91c-.11 0-.182-.191-.182-.536M129.647 133.066c0-3.462-.39-4.772-1.41-4.772s-1.406 1.315-1.406 4.772c0 3.558.415 4.883 1.412 4.883 1 0 1.404-1.3 1.404-4.883m-4.037 0c0-4.804 1.207-5.8 2.626-5.8 1.43 0 2.641.972 2.641 5.8 0 4.703-1.21 5.904-2.64 5.904-1.42 0-2.627-1.2-2.627-5.904M133.255 138.324v-9.176c0-.159-.045-.233-.111-.216 0 0-.689.176-.697.176-.112.015-.176-.05-.176-.305v-.612c0-.208.083-.27.184-.299l1.82-.476c.04-.006.073-.015.104-.015.106 0 .161.071.161.337v10.586c0 .345-.083.536-.192.536h-.912c-.108 0-.181-.191-.181-.536M137.237 138.324v-9.176c0-.159-.05-.233-.113-.216 0 0-.685.176-.693.176-.113.015-.175-.05-.175-.305v-.612c0-.208.083-.27.183-.299l1.82-.476c.037-.006.074-.015.101-.015.107 0 .164.071.164.337v10.586c0 .345-.083.536-.19.536h-.914c-.108 0-.183-.191-.183-.536M144.472 133.066c0-3.462-.39-4.772-1.41-4.772-1.021 0-1.403 1.315-1.403 4.772 0 3.558.412 4.883 1.41 4.883.999 0 1.403-1.3 1.403-4.883m-4.033 0c0-4.804 1.201-5.8 2.623-5.8 1.43 0 2.644.972 2.644 5.8 0 4.703-1.214 5.904-2.644 5.904-1.422 0-2.623-1.2-2.623-5.904M148.083 138.324v-9.176c0-.159-.047-.233-.11-.216 0 0-.69.176-.697.176-.111.015-.175-.05-.175-.305v-.612c0-.208.08-.27.181-.299l1.818-.476c.044-.006.071-.015.11-.015.102 0 .153.071.153.337v10.586c0 .345-.08.536-.192.536h-.908c-.11 0-.18-.191-.18-.536M152.063 138.324v-9.176c0-.159-.049-.233-.113-.216 0 0-.685.176-.694.176-.109.015-.172-.05-.172-.305v-.612c0-.208.08-.27.18-.299l1.82-.476c.042-.006.072-.015.104-.015.107 0 .16.071.16.337v10.586c0 .345-.08.536-.192.536h-.91c-.11 0-.183-.191-.183-.536M124.773 148.15c0-3.462-.388-4.77-1.409-4.77-1.02 0-1.405 1.315-1.405 4.77 0 3.558.413 4.886 1.41 4.886 1 0 1.404-1.303 1.404-4.886m-4.036 0c0-4.804 1.206-5.8 2.627-5.8 1.426 0 2.639.97 2.639 5.8 0 4.703-1.213 5.907-2.639 5.907-1.421 0-2.627-1.204-2.627-5.907M128.382 153.408v-9.175c0-.157-.048-.232-.11-.217 0 0-.689.176-.697.176-.11.018-.174-.046-.174-.302v-.614c0-.21.08-.273.182-.298l1.82-.473c.043-.012.07-.02.106-.02.102 0 .157.071.157.337v10.586c0 .345-.08.537-.192.537h-.909c-.112 0-.183-.192-.183-.537M135.619 148.15c0-3.462-.388-4.77-1.413-4.77-1.02 0-1.402 1.315-1.402 4.77 0 3.558.415 4.886 1.412 4.886 1 0 1.403-1.303 1.403-4.886m-4.036 0c0-4.804 1.204-5.8 2.623-5.8 1.43 0 2.646.97 2.646 5.8 0 4.703-1.216 5.907-2.646 5.907-1.42 0-2.623-1.204-2.623-5.907"></path> <path fill="#5FCAED" d="M433.313 353.972c0 20.173-16.351 36.524-36.526 36.524-20.173 0-36.523-16.351-36.523-36.524 0-20.172 16.35-36.526 36.523-36.526 20.175 0 36.526 16.354 36.526 36.526"></path> <path fill="#253C7F" d="M164.436 357.792c0 20.173-16.351 36.524-36.527 36.524-20.172 0-36.522-16.35-36.522-36.524 0-20.172 16.35-36.525 36.522-36.525 20.176 0 36.527 16.353 36.527 36.525"></path> <path fill="#253E80" d="M522.779 241.539c0 30.103-24.407 54.51-54.516 54.51-30.108 0-54.515-24.407-54.515-54.51 0-30.104 24.407-54.51 54.515-54.51 30.11 0 54.516 24.406 54.516 54.51"></path> <path fill="#FEFEFE" d="M386.176 132.31l-.31-.082h-.252c-.338 0-1.027 0-4.639 1.909l1.234-3.475-1.086-.74c-3.368-2.288-5.224-5.352-5.224-8.63 0-6.588 7.483-11.946 16.68-11.946 5.004 0 9.487 1.592 12.548 4.099.762-.068 1.53-.11 2.314-.11.803 0 1.592.043 2.371.116-3.51-4.486-9.91-7.505-17.233-7.505-11.071 0-20.08 6.884-20.08 15.346 0 3.994 2.041 7.817 5.643 10.66l-3.417 9.618 3.99-2.293c2.607-1.497 5.801-3.2 6.875-3.598 1.492.427 3.04.697 4.621.838a13.581 13.581 0 0 1-2.098-3.732 21.592 21.592 0 0 1-1.937-.475"></path> <mask id="d" fill="#fff"> <use xlink:href="#c"></use> </mask> <path fill="#FEFEFE" d="M398.345 125.96h18.961v-1.776h-18.96v1.776zm0 3.549h18.961v-1.776h-18.96v1.776zm0 3.562h18.961v-1.78h-18.96v1.78zm27.476-4.398c0-7.526-8.222-13.64-18.38-13.64-10.152 0-18.383 6.114-18.383 13.64 0 7.537 8.23 13.645 18.383 13.645 2.442 0 4.767-.354 6.899-.993.708-.222 7.81 3.865 7.81 3.865l-2.299-6.474c3.662-2.492 5.97-6.062 5.97-10.043z" mask="url(#d)"></path> <path fill="#5FCAED" d="M109.03 243.558c0 30.104-24.406 54.51-54.515 54.51C24.407 298.069 0 273.663 0 243.559s24.407-54.51 54.515-54.51c30.11 0 54.516 24.406 54.516 54.51" mask="url(#d)"></path> <path fill="#FEFEFE" d="M89.186 234.283L78.305 266.14H25.139l10.88-31.857z" mask="url(#d)"></path> <path fill="#FEFEFE" d="M32.306 232.524l.612-1.8h46.591v-5.706H59.834l-7.157-8.135H26.805l-3.487 8.135v33.818zM283.43 386.035l-5.13-5.132-8.074 7.458v27.407h15.066v-36.67zM256.548 395.496l-4.62-2.971v23.244h15.068V391.34l-3.888 3.585a5.352 5.352 0 0 1-3.649 1.424 5.403 5.403 0 0 1-2.91-.854M248.701 390.449l-3.813-2.45-11.257 9.798v17.97h15.07zM233.632 424.893h51.662v-5.383h-51.662z" mask="url(#d)"></path> <path fill="#FEFEFE" d="M237.202 390.977l7.397-6.468 13.696 8.812a2.158 2.158 0 0 0 2.627-.23l17.469-16.128 3.368 3.37 3.262-12.174-12.171 3.263 2.494 2.495-16.12 14.88-13.661-8.786a2.167 2.167 0 0 0-2.587.193l-8.61 7.533a2.155 2.155 0 0 0-.2 3.038 2.154 2.154 0 0 0 3.036.202M263.13 68.515h-7.105l1.621-6.022c-1.387-.708-2.348-2.134-2.348-3.798a4.28 4.28 0 0 1 8.558 0c0 1.664-.959 3.09-2.348 3.798l1.622 6.022zm-12.368-32.243c0-4.29 3.49-7.78 7.778-7.78h2.072c4.29 0 7.78 3.49 7.78 7.78v9.851h-17.63v-9.85zm23.854 9.851v-9.85c0-7.722-6.284-14.003-14.004-14.003h-2.072c-7.718 0-14.002 6.28-14.002 14.002v9.851h-3.11v32.149h36.298V46.123h-3.11zM392.596 356.14c-5.22 0-9.454-4.232-9.454-9.452s4.234-9.454 9.454-9.454c5.22 0 9.455 4.233 9.455 9.454 0 5.22-4.235 9.453-9.455 9.453m22.258 9.951l-7.044-7.449a3.206 3.206 0 0 0-3.15-.887l-1.127-1.198c2.365-2.616 3.819-6.073 3.819-9.87 0-8.136-6.619-14.756-14.756-14.756-8.136 0-14.755 6.62-14.755 14.756s6.619 14.753 14.755 14.753a14.68 14.68 0 0 0 8.634-2.811l1.184 1.25c-.343 1.082-.121 2.31.716 3.192l7.041 7.449a3.233 3.233 0 0 0 2.345 1.006 3.22 3.22 0 0 0 2.338-5.435M470.184 240.949a17.836 17.836 0 0 0-5.234 12.642 17.84 17.84 0 0 0 5.234 12.642 17.834 17.834 0 0 0 12.643 5.237c4.94 0 9.41-2 12.641-5.237a17.837 17.837 0 0 0 5.242-12.642c0-4.936-2.007-9.406-5.242-12.642a17.83 17.83 0 0 0-12.64-5.237 17.854 17.854 0 0 0-12.644 5.237zm22.293 2.992a13.78 13.78 0 0 0-4.43-2.963 13.54 13.54 0 0 0-5.22-1.03c-1.848 0-3.612.362-5.216 1.03a13.844 13.844 0 0 0-4.433 2.963 13.747 13.747 0 0 0-2.96 4.43 13.606 13.606 0 0 0-1.035 5.22c0 1.847.368 3.613 1.034 5.218a13.658 13.658 0 0 0 7.394 7.391 13.535 13.535 0 0 0 5.216 1.037c1.853 0 3.613-.368 5.22-1.037a13.604 13.604 0 0 0 4.43-2.963 13.587 13.587 0 0 0 3.998-9.646c0-1.849-.37-3.612-1.035-5.22a13.676 13.676 0 0 0-2.963-4.43zm-20.687-21.006h-1.723c0-.378.052-.627.156-.74.107-.118.338-.168.694-.168.362 0 .597.043.708.138.108.1.165.296.165.616v.154zm-7.05-1.572h.942l-.031.666.018.005c.184-.473.596-.715 1.234-.715.938 0 1.404.436 1.404 1.305v2.695h-.946v-2.532l-.022-.278c-.048-.296-.274-.442-.693-.442-.638 0-.955.3-.955.905v2.347h-.95v-3.956zm-.954 0v3.956h-.948l.052-.677-.016-.005c-.184.485-.609.722-1.275.722-.893 0-1.345-.448-1.345-1.337v-2.659h.95v2.43c0 .332.048.554.14.662.091.105.288.157.585.157.606 0 .91-.36.91-1.088v-2.16h.947zm-4.477-1.696v3.905c0 .725-.12 1.206-.36 1.44-.234.237-.726.355-1.46.355-.784 0-1.29-.11-1.52-.337-.239-.231-.355-.733-.355-1.502l.016-.418h1.022c.012.21.023.366.023.47 0 .102.006.222.012.362.018.337.288.513.818.513.309 0 .513-.063.604-.19.087-.119.136-.4.136-.828v-3.77h1.064zm12.475 4.387h.95l-.003.156c0 .765-.58 1.15-1.735 1.15-.786 0-1.298-.133-1.543-.4-.243-.268-.366-.835-.366-1.7 0-.77.132-1.286.386-1.553.248-.26.748-.395 1.486-.395.707 0 1.175.132 1.414.388.239.26.358.769.358 1.524l.003.288h-2.677c-.008.09-.008.147-.008.172 0 .385.06.646.178.774.119.124.359.194.719.194.345 0 .577-.04.68-.117.107-.073.158-.231.158-.48zm-8.66 25.096v2.235H451.87v-3.03c0-1.566.281-2.61.847-3.127.564-.515 1.901-.963 4.018-1.341 1.75-.309 2.79-.591 3.118-.852.32-.265.478-.927.478-2 0-1.032-.158-1.685-.478-1.962-.328-.277-1.097-.41-2.31-.41-1.255 0-2.037.133-2.368.414-.324.281-.487.95-.487 2.034l-.01.631h-2.758v-.622c0-1.865.384-3.126 1.15-3.77.77-.646 2.262-.967 4.485-.967 2.164 0 3.634.327 4.407.98.773.655 1.163 1.903 1.163 3.731 0 1.733-.298 2.89-.887 3.476-.588.58-1.945 1.074-4.072 1.466-1.753.318-2.769.585-3.057.811-.283.22-.42.853-.42 1.9v.403h8.436zm-12.044-38.757h.03c.792 0 1.44.65 1.44 1.442v6.989c0 .796-.648 1.445-1.44 1.445h-.03a1.444 1.444 0 0 1-1.442-1.445v-6.989c0-.792.645-1.442 1.442-1.442zm26.167 0h.023c.796 0 1.444.65 1.444 1.442v6.989c0 .796-.648 1.445-1.444 1.445h-.023a1.445 1.445 0 0 1-1.448-1.445v-6.989c0-.792.644-1.442 1.448-1.442zm6.513 19.647v4.198c.892.048 1.766.154 2.624.317v-16.004a3.766 3.766 0 0 0-3.757-3.751h-2.602v4.859c0 1.118-.91 2.026-2.02 2.026h-1.49a2.026 2.026 0 0 1-2.024-2.026v-4.86h-20.627v4.86a2.03 2.03 0 0 1-2.024 2.026h-1.488a2.029 2.029 0 0 1-2.023-2.026v-4.86h-2.603a3.761 3.761 0 0 0-3.756 3.752v40.68a3.762 3.762 0 0 0 3.756 3.757h20.139c-.28-.506-.54-1.029-.78-1.558h-20.492v-.374h20.332a20.195 20.195 0 0 1-.577-1.558h-19.755v-.287h19.665a18.31 18.31 0 0 1-.402-1.56h-18.688a.58.58 0 0 1-.575-.577V230.04c0-.32.26-.58.575-.58h38.016c.32 0 .576.26.576.58zm-17.144 12.847a1.825 1.825 0 0 1-.187-.22c-.318-.45-.481-1.22-.481-2.301 0-1.584.373-2.639 1.129-3.177.748-.538 2.222-.806 4.409-.806.804 0 1.508.03 2.122.1a19.7 19.7 0 0 0-3.268 2.215c-.577.052-.963.14-1.157.28-.248.172-.388.576-.436 1.219-.781.829-1.5 1.726-2.13 2.69zm16.532 8.434a.422.422 0 0 1 .232-.256.443.443 0 0 1 .349-.024.473.473 0 0 1 .257.235c.008.014.02.03.022.045l6.563-6.566a.78.78 0 0 1 1.089 0c.151.154.23.354.23.547a.758.758 0 0 1-.23.546l-7.43 7.43 1.029.78c.24.178.387.434.427.71a1.088 1.088 0 0 1-1.724 1.027l-1.13-.85-3.483 9.847a.459.459 0 0 1-.23.259.45.45 0 0 1-.606-.215.454.454 0 0 1-.02-.347l3.04-8.595a.785.785 0 0 1-.296.056.753.753 0 0 1-.54-.229.747.747 0 0 1-.23-.54c0-.203.075-.393.23-.55l.732-.73-5.966-4.46a1.095 1.095 0 0 1-.428-.718c-.038-.27.027-.558.208-.802.176-.239.44-.384.714-.425.273-.036.564.024.802.21l6.068 4.53.321-.915zM123.355 370.52a19.52 19.52 0 0 0-6.16-1.765c.071-.51.139-1.014.212-1.515.473-.305.813-.75.842-1.122l.166-1.404c.062.07.15.12.25.128a.408.408 0 0 0 .451-.363l.223-2.16a.409.409 0 0 0-.602-.402c.05-.411.095-.822.15-1.233.033-.566.31-2.065-.775-3.038-1.568-1.539-5.025-1.539-6.597 0-1.084.973-.806 2.472-.768 3.038l.144 1.233a.411.411 0 0 0-.604.402l.226 2.16c.023.224.22.387.447.363a.387.387 0 0 0 .255-.128c.055.47.11.936.162 1.404.033.372.373.816.846 1.122l.211 1.515c-2.124.248-4.21.832-6.16 1.765-.63.33-1.068 1.182-1.003 1.843.074.76.149 1.52.229 2.282.067.659.635 1.314 1.264 1.44a50.743 50.743 0 0 0 16.102 0c.63-.126 1.194-.781 1.265-1.44.076-.762.154-1.522.228-2.282.063-.661-.375-1.513-1.004-1.843M150.162 370.52a19.503 19.503 0 0 0-6.16-1.765c.07-.51.14-1.014.217-1.515.472-.305.808-.75.843-1.122.051-.468.109-.933.162-1.404a.405.405 0 0 0 .7-.235l.227-2.16a.411.411 0 0 0-.603-.402c.047-.411.099-.822.145-1.233.036-.566.317-2.065-.767-3.038-1.575-1.539-5.031-1.539-6.6 0-1.085.973-.807 2.472-.768 3.038.046.411.093.822.143 1.233a.41.41 0 0 0-.602.402l.224 2.16a.404.404 0 0 0 .444.363.388.388 0 0 0 .257-.128l.163 1.404c.036.372.374.816.845 1.122.07.501.14 1.004.213 1.515-2.125.248-4.21.832-6.162 1.765-.628.33-1.069 1.182-1.005 1.843l.23 2.282c.07.659.637 1.314 1.265 1.44a50.75 50.75 0 0 0 16.103 0c.628-.126 1.195-.781 1.265-1.44.076-.762.154-1.522.226-2.282.066-.661-.37-1.513-1.005-1.843M136.759 346.33a19.839 19.839 0 0 0-6.161-1.767c.07-.503.14-1.01.214-1.513.473-.302.81-.748.843-1.116l.162-1.406a.44.44 0 0 0 .256.127.41.41 0 0 0 .447-.366l.222-2.16a.404.404 0 0 0-.6-.399c.046-.413.098-.822.144-1.236.04-.56.319-2.066-.769-3.033-1.57-1.542-5.028-1.542-6.595 0-1.086.967-.808 2.473-.769 3.033.046.414.097.823.142 1.236a.407.407 0 0 0-.602.4l.225 2.16a.41.41 0 0 0 .446.365.43.43 0 0 0 .256-.127l.161 1.406c.035.368.371.814.846 1.116.071.503.141 1.009.21 1.513-2.122.255-4.208.84-6.157 1.767-.63.332-1.07 1.187-1.006 1.846.074.762.15 1.521.23 2.281.067.664.635 1.316 1.262 1.438 5.343.86 10.763.86 16.103 0 .632-.122 1.196-.774 1.267-1.438.078-.76.153-1.52.225-2.28.066-.66-.372-1.515-1.002-1.847" mask="url(#d)"></path> <path fill="#FEFEFE" d="M134.605 364.827l-5.223-3.015v-6.029c0-.644-.52-1.163-1.164-1.163a1.16 1.16 0 0 0-1.162 1.163v6.029l-5.224 3.015a1.166 1.166 0 1 0 .585 2.177c.197 0 .4-.051.579-.158l5.222-3.013 5.223 3.013c.182.107.384.158.584.158.401 0 .794-.212 1.01-.585.317-.555.13-1.27-.43-1.592" mask="url(#d)"></path> </g> </g> </svg> 